# xmcd
#
# Track frame offsets:
#	150
#	15152
#	29282
#	38592
#	58755
#	77517
#	92667
#	110627
#	122102
#	134630
#	150155
#	166955
#
# Disc length: 2381 seconds
#
# Revision: 0
# Processed by: cddbd v1.4PL0 Copyright (c) Steve Scherf et al.
# Submitted via: dBpowerAMP V4.0
#
DISCID=88094b0c
DTITLE=Sergio Reis - Do tamanho do Brasil - lado B
DYEAR=1900
DGENRE=Country
TTITLE0=Sino da capelinha
TTITLE1=A boiada
TTITLE2=Sarita
TTITLE3=Pinga ni mim
TTITLE4=Adeus Mariana
TTITLE5=Galopeira
TTITLE6=Juliana
TTITLE7=Castelo de amor
TTITLE8=Vaqueiro solitário
TTITLE9=Canoeiro
TTITLE10=Assim é meu sertão
TTITLE11=Recolhida
EXTD=
EXTT0=
EXTT1=
EXTT2=
EXTT3=
EXTT4=
EXTT5=
EXTT6=
EXTT7=
EXTT8=
EXTT9=
EXTT10=
EXTT11=
PLAYORDER=
